<svg height="32" viewBox="0 0 32 32" width="32" xmlns="http://www.w3.org/2000/svg"><path d="m31.526 7.24c.01.042.016.089.016.13v6.87c0 .177-.094.344-.25.432l-5.766 3.323v6.578c0 .177-.094.344-.25.432l-12.036 6.927c-.026.016-.057.026-.089.036-.01.005-.021.01-.031.016-.083.021-.172.021-.255 0-.016-.005-.026-.01-.036-.016-.031-.01-.057-.021-.083-.036l-12.031-6.927c-.156-.089-.255-.255-.255-.432v-20.609c0-.042.01-.089.021-.13.005-.016.01-.026.016-.042.01-.026.021-.052.031-.078.005-.016.021-.026.031-.042.016-.021.031-.042.047-.063.016-.01.031-.021.047-.036.021-.016.036-.031.057-.042l6.016-3.464c.156-.089.349-.089.5 0l6.021 3.464c.021.01.036.026.052.042.016.01.036.026.052.036.016.021.026.036.042.063.01.01.026.026.036.042.01.026.021.052.031.078.005.016.016.026.016.042.016.042.021.083.021.13v12.87l5.01-2.885v-6.578c0-.047.01-.089.021-.13.005-.016.01-.031.016-.042.01-.026.021-.052.031-.078.01-.021.026-.031.036-.047.016-.021.026-.042.042-.057s.036-.026.052-.036c.016-.016.031-.031.052-.042l6.021-3.464c.151-.094.344-.094.5 0l6.016 3.464c.021.01.036.026.057.042.016.01.031.021.047.036s.031.036.047.057c.01.016.026.026.031.047.016.026.021.052.031.078.01.01.016.026.021.042zm-.99 6.708v-5.708l-2.104 1.208-2.906 1.677v5.708zm-6.01 10.333v-5.714l-2.865 1.63-8.167 4.667v5.766zm-23.068-19.448v19.448l11.031 6.349v-5.766l-5.766-3.266c-.021-.01-.036-.026-.052-.042-.016-.01-.036-.021-.047-.036h-.005c-.016-.016-.026-.036-.042-.052-.01-.016-.026-.031-.036-.052-.01-.016-.021-.042-.026-.063-.01-.021-.021-.036-.026-.057s-.01-.047-.01-.073c-.005-.021-.01-.036-.01-.057v-13.448l-2.906-1.677zm5.516-3.755-5.01 2.885 5.01 2.885 5.01-2.885zm2.609 18.011 2.906-1.677v-12.578l-2.104 1.208-2.911 1.677v12.578zm15.443-14.605-5.016 2.885 5.016 2.885 5.01-2.885zm-.5 6.641-5.016-2.885v5.708l2.906 1.677 2.109 1.208zm-11.536 12.87 11.026-6.292-5.005-2.885-11.021 6.344z"/></svg>